<svg width="44" height="44" viewBox="12 12 19 19" fill="none" xmlns="http://www.w3.org/2000/svg"><path fill-rule="evenodd" clip-rule="evenodd" d="M21.6826 29.9515C20.0143 29.9515 19.239 29.7069 17.8913 28.7284C17.0389 29.8292 14.3395 30.6894 14.2218 29.2177C14.2218 28.1128 13.9783 27.1792 13.7022 26.16C13.3734 24.9044 13 23.506 13 21.4798C13 16.6406 16.9537 13 21.638 13C26.3264 13 30 16.82 30 21.5247C30.0157 26.1566 26.2945 29.9268 21.6826 29.9515ZM21.7516 17.1828C19.4704 17.0646 17.6924 18.6505 17.2987 21.1374C16.974 23.1962 17.5504 25.7034 18.0415 25.8339C18.277 25.891 18.8696 25.4099 19.239 25.0389C19.8498 25.4627 20.5611 25.7172 21.3011 25.7768C23.6648 25.891 25.6846 24.0836 25.8433 21.7122C25.9357 19.3357 24.1157 17.3229 21.7516 17.1869L21.7516 17.1828Z" fill="#B7BAC4"/></svg>
